<svg id="GD001" height="512" viewBox="0 0 512 512" width="512" xmlns="http://www.w3.org/2000/svg" xmlns:xlink="http://www.w3.org/1999/xlink"><linearGradient id="New_Gradient_Swatch_2" gradientUnits="userSpaceOnUse" x1="247.515" x2="247.515" y1="-16.433" y2="504.275"><stop offset="0" stop-color="#fc5c7d"/><stop offset=".129" stop-color="#f35e85"/><stop offset=".343" stop-color="#d9659b"/><stop offset=".616" stop-color="#b070bf"/><stop offset=".934" stop-color="#777ff0"/><stop offset="1" stop-color="#6a82fb"/></linearGradient><linearGradient id="New_Gradient_Swatch_2-2" gradientTransform="matrix(.707 .707 -.707 .707 223.18 -185.23)" x1="335.196" x2="335.196" xlink:href="#New_Gradient_Swatch_2" y1="-16.433" y2="504.275"/><path d="m460.583 381.576-112.383-163.517 18.408-16.359a62.173 62.173 0 0 0 41.156-18.266l11.817-11.817a65.24 65.24 0 0 0 6.978-84.317 8.029 8.029 0 0 0 -1.86-1.86 65.24 65.24 0 0 0 -84.315 6.979l-11.815 11.815a62.175 62.175 0 0 0 -18.269 41.159l-16.359 18.407-163.517-112.383a8 8 0 0 0 -10.188.936l-33.942 33.941a8 8 0 0 0 .636 11.886l154.57 124.612-19.61 22.061-46.05 46.05-102-69.79a8 8 0 0 0 -10.174.946l-28.283 28.284a8 8 0 0 0 0 11.314l85.717 85.718-24.345 34.082a8 8 0 0 0 .853 10.308l5.657 5.656-11.314 11.314-28.284-28.285-11.313 11.315 67.882 67.882 11.313-11.314-28.284-28.284 11.313-11.314 5.658 5.658a8 8 0 0 0 10.306.852l34.083-24.345 85.718 85.718a8 8 0 0 0 11.314 0l28.284-28.285a8 8 0 0 0 .946-10.175l-69.79-102 46.046-46.047 22.065-19.611 124.613 154.57a8 8 0 0 0 5.8 2.967c.143.008.285.012.427.012a8 8 0 0 0 5.657-2.343l33.94-33.941a8 8 0 0 0 .938-10.189zm-333.738-313.205 13.41 9.217-23.823 23.823-12.532-10.099zm2.115 43.14 24.706-24.706 129.563 89.045-31.085 34.97zm195.245 42.323a8 8 0 0 0 2.021-5.314 46.322 46.322 0 0 1 13.656-32.971l11.818-11.816a49.287 49.287 0 0 1 62.6-6.033 49.283 49.283 0 0 1 -6.034 62.6l-11.816 11.818a46.317 46.317 0 0 1 -32.97 13.656 8 8 0 0 0 -5.314 2.021l-96.186 85.5-5.98-5.98 67.882-67.881-11.313-11.315-67.882 67.881-5.98-5.98zm-158.715 215.303-22.627-22.627 65.27-65.27a31.79 31.79 0 0 0 8.267 14.36 31.8 31.8 0 0 0 14.358 8.268zm73.54-96.166 11.313 11.313a16.018 16.018 0 0 1 -22.627 0 16.02 16.02 0 0 1 0-22.628zm-107.481 62.229-56.569-56.572 22.176-22.176 67.175 45.962zm-61.263-97.133 13.435 9.193-20.054 20.054-11.314-11.314zm56.471 160.219-13.043-13.043 18.856-26.4 20.586 20.586zm82.829-50.617 45.962 67.175-22.176 22.175-56.572-56.568zm46.414 111.978-11.314-11.314 20.054-20.054 9.193 13.435zm80.15-230.875 89.05 129.562-24.711 24.706-99.309-123.184zm84.538 179.328-10.1-12.528 23.823-23.823 9.216 13.41z" fill="url(#New_Gradient_Swatch_2)"/><path d="m327.196 168.804h16v16h-16z" fill="url(#New_Gradient_Swatch_2-2)" transform="matrix(.707 -.707 .707 .707 -26.848 288.789)"/></svg>